<?xml version="1.0" encoding="UTF-8"?>
<svg id="_레이어_1" data-name="레이어 1" xmlns="http://www.w3.org/2000/svg" viewBox="0 0 13.5366 8.8173">
  <defs>
    <style>
      .cls-1 {
        fill: #e6e6e6;
      }

      .cls-2 {
        fill: none;
        stroke: #1a1a1a;
        stroke-miterlimit: 10;
        stroke-width: 1.5px;
      }

      .cls-3 {
        opacity: .75;
      }
    </style>
  </defs>
  <rect class="cls-3" x="0" y="0" width="13.5366" height="8.8173" rx="3.6329" ry="3.6329"/>
  <g>
    <g>
      <path class="cls-2" d="M3.2205,5.4013c.1309.0312.2744.0488.3877.0488.2471,0,.3506-.1074.3516-.2832,0-.2207-.1934-.3193-.5127-.4502-.1982-.0762-.4189-.1846-.5947-.3467s-.2959-.3867-.2959-.6934c0-.252.0898-.4951.2842-.6748.1846-.1758.4775-.293.8867-.293.3564,0,.6211.0449.959.1758.0723.0312.0947.0635.0801.167l-.0361.4268c-.0039.0859-.0537.1084-.1396.0684-.2695-.126-.5625-.1846-.7734-.1846-.3428,0-.4775.1123-.4775.3242,0,.1211.0947.2109.2383.2881.1396.085.3291.1611.5127.2559.1982.1035.3594.2119.4727.3604.1123.1484.1797.3379.1797.5762-.001.2705-.1045.5088-.2842.6748-.1846.167-.4502.2656-.7744.2656-.4102,0-.6934-.0713-.959-.1621-.1035-.0352-.126-.0625-.1123-.1484l.0811-.418c.0137-.0859.0684-.1133.1572-.0811.0947.0361.2295.0713.3691.1035Z"/>
      <path class="cls-2" d="M5.3396,6.0625c-.126,0-.1709-.0449-.1709-.2021l.0029-2.9033c0-.1582.0449-.2031.1709-.2031h.4004c.1309,0,.1709.0449.1709.2031l-.002,1.4766.8066-.793c.0498-.0488.1035-.0576.1582-.0176l.3691.2744c.0713.0498.0713.1123-.0049.1895l-.7168.7158.6875.9092c.0586.085.0498.1436-.0537.1934l-.3506.1709c-.1221.0586-.1807.0312-.2529-.0625l-.6426-.8643-.001.7109c0,.1572-.0449.2021-.1709.2021h-.4004Z"/>
      <path class="cls-2" d="M8.0115,2.709c.2383,0,.4326.1709.4316.4102,0,.2383-.1943.4053-.4326.4053s-.418-.167-.418-.4053c.001-.2393.1807-.4102.4189-.4102ZM7.6462,4.0097c0-.1797.0449-.2334.2021-.2334h.3516c.1572,0,.207.0586.207.2334l.0068,1.8145c0,.1797-.0498.2383-.207.2383h-.3604c-.1572,0-.2021-.0586-.2021-.2383l.002-1.8145Z"/>
      <path class="cls-2" d="M8.9968,2.957c0-.1582.0449-.2031.1709-.2031h.4004c.1309,0,.1709.0449.1709.2031l-.0029,2.9033c0,.1572-.04.2021-.1709.2021h-.4004c-.126,0-.167-.0449-.1709-.2021l.0029-2.9033Z"/>
      <path class="cls-2" d="M10.3015,2.957c0-.1582.0449-.2031.1709-.2031h.4004c.1309,0,.1709.0449.1709.2031l-.0029,2.9033c0,.1572-.04.2021-.1709.2021h-.4004c-.126,0-.167-.0449-.1709-.2021l.0029-2.9033Z"/>
    </g>
    <g>
      <path class="cls-1" d="M3.2205,5.4023c.1309.0312.2744.0488.3877.0488.2471,0,.3506-.1074.3516-.2832,0-.2207-.1934-.3193-.5127-.4502-.1982-.0762-.4189-.1846-.5947-.3467s-.2959-.3867-.2959-.6934c0-.252.0898-.4951.2842-.6748.1846-.1758.4775-.293.8867-.293.3564,0,.6211.0449.959.1758.0723.0312.0947.0635.0801.167l-.0361.4268c-.0039.0859-.0537.1084-.1396.0684-.2695-.126-.5625-.1846-.7734-.1846-.3428,0-.4775.1123-.4775.3242,0,.1211.0947.2109.2383.2881.1396.085.3291.1611.5127.2559.1982.1035.3594.2119.4727.3604.1123.1484.1797.3379.1797.5762-.001.2705-.1045.5088-.2842.6748-.1846.167-.4502.2656-.7744.2656-.4102,0-.6934-.0713-.959-.1621-.1035-.0352-.126-.0625-.1123-.1484l.0811-.418c.0137-.0859.0684-.1133.1572-.0811.0947.0361.2295.0713.3691.1035Z"/>
      <path class="cls-1" d="M5.3396,6.0634c-.126,0-.1709-.0449-.1709-.2021l.0029-2.9033c0-.1582.0449-.2031.1709-.2031h.4004c.1309,0,.1709.0449.1709.2031l-.002,1.4766.8066-.793c.0498-.0488.1035-.0576.1582-.0176l.3691.2744c.0713.0498.0713.1123-.0049.1895l-.7168.7158.6875.9092c.0586.085.0498.1436-.0537.1934l-.3506.1709c-.1221.0586-.1807.0312-.2529-.0625l-.6426-.8643-.001.7109c0,.1572-.0449.2021-.1709.2021h-.4004Z"/>
      <path class="cls-1" d="M8.0115,2.7099c.2383,0,.4326.1709.4316.4102,0,.2383-.1943.4053-.4326.4053s-.418-.167-.418-.4053c.001-.2393.1807-.4102.4189-.4102ZM7.6462,4.0107c0-.1797.0449-.2334.2021-.2334h.3516c.1572,0,.207.0586.207.2334l.0068,1.8145c0,.1797-.0498.2383-.207.2383h-.3604c-.1572,0-.2021-.0586-.2021-.2383l.002-1.8145Z"/>
      <path class="cls-1" d="M8.9968,2.958c0-.1582.0449-.2031.1709-.2031h.4004c.1309,0,.1709.0449.1709.2031l-.0029,2.9033c0,.1572-.04.2021-.1709.2021h-.4004c-.126,0-.167-.0449-.1709-.2021l.0029-2.9033Z"/>
      <path class="cls-1" d="M10.3015,2.958c0-.1582.0449-.2031.1709-.2031h.4004c.1309,0,.1709.0449.1709.2031l-.0029,2.9033c0,.1572-.04.2021-.1709.2021h-.4004c-.126,0-.167-.0449-.1709-.2021l.0029-2.9033Z"/>
    </g>
  </g>
  <g class="cls-3">
    <path d="M9.9037,1c1.4518,0,2.6329,1.1812,2.6329,2.6329v1.5515c0,1.4518-1.1811,2.6329-2.6329,2.6329H3.6329c-1.4518,0-2.6329-1.1812-2.6329-2.6329v-1.5515c0-1.4518,1.1811-2.6329,2.6329-2.6329h6.2708M9.9037,0H3.6329C1.6265,0,0,1.6265,0,3.6329v1.5515C0,7.1908,1.6265,8.8173,3.6329,8.8173h6.2708c2.0063,0,3.6329-1.6265,3.6329-3.6329v-1.5515c0-2.0064-1.6265-3.6329-3.6329-3.6329h0Z"/>
  </g>
</svg>